{
  "asset": {
    "version": "2.0",
    "generator": "ULRE GLTF Loader Test - Complex Scene"
  },
  "scene": 0,
  "scenes": [
    {
      "name": "Complex Scene",
      "nodes": [0, 1]
    }
  ],
  "nodes": [
    {
      "name": "RootNode",
      "children": [2],
      "matrix": [1, 0, 0, 0, 0, 1, 0, 0, 0, 0, 1, 0, 0, 0, 0, 1]
    },
    {
      "name": "SeparateTriangle",
      "mesh": 0,
      "matrix": [1, 0, 0, 0, 0, 1, 0, 0, 0, 0, 1, 0, 2, 0, 0, 1]
    },
    {
      "name": "ChildNode",
      "mesh": 1,
      "matrix": [1, 0, 0, 0, 0, 1, 0, 0, 0, 0, 1, 0, -1, 0, 0, 1]
    }
  ],
  "meshes": [
    {
      "name": "Triangle",
      "primitives": [
        {
          "attributes": {
            "POSITION": 0
          },
          "mode": 4
        }
      ]
    },
    {
      "name": "Quad",
      "primitives": [
        {
          "attributes": {
            "POSITION": 1
          },
          "indices": 2,
          "mode": 4
        }
      ]
    }
  ],
  "accessors": [
    {
      "bufferView": 0,
      "byteOffset": 0,
      "componentType": 5126,
      "count": 3,
      "type": "VEC3",
      "min": [-0.5, -0.5, 0.0],
      "max": [0.5, 0.5, 0.0]
    },
    {
      "bufferView": 1,
      "byteOffset": 0,
      "componentType": 5126,
      "count": 4,
      "type": "VEC3",
      "min": [-0.5, -0.5, 0.0],
      "max": [0.5, 0.5, 0.0]
    },
    {
      "bufferView": 2,
      "byteOffset": 0,
      "componentType": 5123,
      "count": 6,
      "type": "SCALAR"
    }
  ],
  "bufferViews": [
    {
      "buffer": 0,
      "byteOffset": 0,
      "byteLength": 36,
      "target": 34962
    },
    {
      "buffer": 0,
      "byteOffset": 36,
      "byteLength": 48,
      "target": 34962
    },
    {
      "buffer": 0,
      "byteOffset": 84,
      "byteLength": 12,
      "target": 34963
    }
  ],
  "buffers": [
    {
      "byteLength": 96,
      "uri": "data:application/octet-stream;base64,"
    }
  ]
}