{
  "asset": {
    "version": "2.0",
    "generator": "ULRE GLTF Loader Test"
  },
  "scene": 0,
  "scenes": [
    {
      "name": "Triangle Scene",
      "nodes": [0]
    }
  ],
  "nodes": [
    {
      "name": "TriangleNode",
      "mesh": 0
    }
  ],
  "meshes": [
    {
      "name": "Triangle",
      "primitives": [
        {
          "attributes": {
            "POSITION": 0
          },
          "mode": 4
        }
      ]
    }
  ],
  "accessors": [
    {
      "bufferView": 0,
      "byteOffset": 0,
      "componentType": 5126,
      "count": 3,
      "type": "VEC3",
      "min": [-0.5, -0.5, 0.0],
      "max": [0.5, 0.5, 0.0]
    }
  ],
  "bufferViews": [
    {
      "buffer": 0,
      "byteOffset": 0,
      "byteLength": 36,
      "target": 34962
    }
  ],
  "buffers": [
    {
      "byteLength": 36,
      "uri": "data:application/octet-stream;base64,"
    }
  ]
}